HIERARCHY
ROOT rot
{
	OFFSET 5.900000 0.000000 0.000000 
	CHANNELS 0 Xposition Yposition Zposition
	JOINT right_decoded
	{
		OFFSET 1.100008 0.000000 0.000000 
		CHANNELS 6 Xposition Yposition Zposition Zrotation Yrotation Xrotation
		JOINT joint_1
		{
			OFFSET 1.363060 -1.794630 0.839290 
			CHANNELS 3 Zrotation Yrotation Xrotation
			JOINT joint_2
			{
				OFFSET 2.448110 -6.726130 0.000000 
				CHANNELS 3 Zrotation Yrotation Xrotation
				JOINT joint_3
				{
					OFFSET 2.562200 -7.039590 0.000000 
					CHANNELS 3 Zrotation Yrotation Xrotation
					JOINT joint_4
					{
						OFFSET 0.157640 -0.433110 2.322550 
						CHANNELS 3 Zrotation Yrotation Xrotation
						End Site
						{
							OFFSET 0.000000 0.000000 0.000000 
						}
					}
				}
			}
		}
		JOINT joint_5
		{
			OFFSET -1.305520 -1.794630 0.839290 
			CHANNELS 3 Zrotation Yrotation Xrotation
			JOINT joint_6
			{
				OFFSET -2.542530 -6.985550 0.000000 
				CHANNELS 3 Zrotation Yrotation Xrotation
				JOINT joint_7
				{
					OFFSET -2.568260 -7.056230 0.000000 
					CHANNELS 3 Zrotation Yrotation Xrotation
					JOINT joint_8
					{
						OFFSET -0.164730 -0.452590 2.363150 
						CHANNELS 3 Zrotation Yrotation Xrotation
						End Site
						{
							OFFSET 0.000000 0.000000 0.000000 
						}
					}
				}
			}
		}
		JOINT joint_9
		{
			OFFSET 0.028270 2.035590 -0.193380 
			CHANNELS 3 Zrotation Yrotation Xrotation
			JOINT joint_10
			{
				OFFSET 0.056720 2.048850 -0.042750 
				CHANNELS 3 Zrotation Yrotation Xrotation
				JOINT joint_11
				{
					OFFSET -0.054170 1.746240 0.172020 
					CHANNELS 3 Zrotation Yrotation Xrotation
					JOINT joint_12
					{
						OFFSET 0.104070 1.761360 -0.123970 
						CHANNELS 3 Zrotation Yrotation Xrotation
						End Site
						{
							OFFSET 0.000000 0.000000 0.000000 
						}
					}
				}
				JOINT joint_13
				{
					OFFSET 3.362410 1.200890 -0.311210 
					CHANNELS 3 Zrotation Yrotation Xrotation
					JOINT joint_14
					{
						OFFSET 4.983000 -0.000000 -0.000000 
						CHANNELS 3 Zrotation Yrotation Xrotation
						JOINT joint_15
						{
							OFFSET 3.483560 -0.000000 -0.000000 
							CHANNELS 3 Zrotation Yrotation Xrotation
							JOINT joint_16
							{
								OFFSET 0.715260 -0.000000 -0.000000 
								CHANNELS 3 Zrotation Yrotation Xrotation
								End Site
								{
									OFFSET 0.000000 0.000000 0.000000 
								}
							}
						}
					}
				}
				JOINT joint_17
				{
					OFFSET -3.136600 1.374050 -0.404650 
					CHANNELS 3 Zrotation Yrotation Xrotation
					JOINT joint_18
					{
						OFFSET -5.241900 -0.000000 -0.000000 
						CHANNELS 3 Zrotation Yrotation Xrotation
						JOINT joint_19
						{
							OFFSET -3.444170 -0.000000 -0.000000 
							CHANNELS 3 Zrotation Yrotation Xrotation
							JOINT joint_20
							{
								OFFSET -0.622530 -0.000000 -0.000000 
								CHANNELS 3 Zrotation Yrotation Xrotation
								End Site
								{
									OFFSET 0.000000 0.000000 0.000000 
								}
							}
						}
					}
				}
			}
		}
	}
	JOINT original_left
	{
		OFFSET -13.400002 0.000000 0.000000 
		CHANNELS 6 Xposition Yposition Zposition Zrotation Yrotation Xrotation
		JOINT joint_1
		{
			OFFSET 1.363060 -1.794630 0.839290 
			CHANNELS 3 Zrotation Yrotation Xrotation
			JOINT joint_2
			{
				OFFSET 2.448110 -6.726130 0.000000 
				CHANNELS 3 Zrotation Yrotation Xrotation
				JOINT joint_3
				{
					OFFSET 2.562200 -7.039590 0.000000 
					CHANNELS 3 Zrotation Yrotation Xrotation
					JOINT joint_4
					{
						OFFSET 0.157640 -0.433110 2.322550 
						CHANNELS 3 Zrotation Yrotation Xrotation
						End Site
						{
							OFFSET 0.000000 0.000000 0.000000 
						}
					}
				}
			}
		}
		JOINT joint_5
		{
			OFFSET -1.305520 -1.794630 0.839290 
			CHANNELS 3 Zrotation Yrotation Xrotation
			JOINT joint_6
			{
				OFFSET -2.542530 -6.985550 0.000000 
				CHANNELS 3 Zrotation Yrotation Xrotation
				JOINT joint_7
				{
					OFFSET -2.568260 -7.056230 0.000000 
					CHANNELS 3 Zrotation Yrotation Xrotation
					JOINT joint_8
					{
						OFFSET -0.164730 -0.452590 2.363150 
						CHANNELS 3 Zrotation Yrotation Xrotation
						End Site
						{
							OFFSET 0.000000 0.000000 0.000000 
						}
					}
				}
			}
		}
		JOINT joint_9
		{
			OFFSET 0.028270 2.035590 -0.193380 
			CHANNELS 3 Zrotation Yrotation Xrotation
			JOINT joint_10
			{
				OFFSET 0.056720 2.048850 -0.042750 
				CHANNELS 3 Zrotation Yrotation Xrotation
				JOINT joint_11
				{
					OFFSET -0.054170 1.746240 0.172020 
					CHANNELS 3 Zrotation Yrotation Xrotation
					JOINT joint_12
					{
						OFFSET 0.104070 1.761360 -0.123970 
						CHANNELS 3 Zrotation Yrotation Xrotation
						End Site
						{
							OFFSET 0.000000 0.000000 0.000000 
						}
					}
				}
				JOINT joint_13
				{
					OFFSET 3.362410 1.200890 -0.311210 
					CHANNELS 3 Zrotation Yrotation Xrotation
					JOINT joint_14
					{
						OFFSET 4.983000 -0.000000 -0.000000 
						CHANNELS 3 Zrotation Yrotation Xrotation
						JOINT joint_15
						{
							OFFSET 3.483560 -0.000000 -0.000000 
							CHANNELS 3 Zrotation Yrotation Xrotation
							JOINT joint_16
							{
								OFFSET 0.715260 -0.000000 -0.000000 
								CHANNELS 3 Zrotation Yrotation Xrotation
								End Site
								{
									OFFSET 0.000000 0.000000 0.000000 
								}
							}
						}
					}
				}
				JOINT joint_17
				{
					OFFSET -3.136600 1.374050 -0.404650 
					CHANNELS 3 Zrotation Yrotation Xrotation
					JOINT joint_18
					{
						OFFSET -5.241900 -0.000000 -0.000000 
						CHANNELS 3 Zrotation Yrotation Xrotation
						JOINT joint_19
						{
							OFFSET -3.444170 -0.000000 -0.000000 
							CHANNELS 3 Zrotation Yrotation Xrotation
							JOINT joint_20
							{
								OFFSET -0.622530 -0.000000 -0.000000 
								CHANNELS 3 Zrotation Yrotation Xrotation
								End Site
								{
									OFFSET 0.000000 0.000000 0.000000 
								}
							}
						}
					}
				}
			}
		}
	}
}
MOTION
Frames: 6
Frame Time: 0.005000
1.386107 16.969148 6.217893 4.703648 -13.593828 5.289655 -28.838011 -10.409364 1.233248 -1.237442 5.854213 14.052990 -1.558063 15.074318 -17.499418 0.455087 0.409846 1.433991 21.108525 15.428245 -7.533758 -0.703943 -9.527111 26.145993 1.100040 -13.620145 -17.615872 -0.317084 1.013249 -2.470720 1.689247 -0.700835 -4.319201 -0.528293 -0.792536 -2.879364 7.361049 -9.040115 14.582952 0.207074 -4.335953 9.997689 -86.371471 10.638759 -3.133188 18.203123 -27.643456 -4.254989 0.289463 2.296019 19.317834 -6.956487 0.001346 -0.028626 81.942053 -3.631129 16.367701 -20.016581 29.106441 -4.924587 -0.677017 -1.524827 8.762509 6.933784 -0.001260 -0.005887 1.386107 16.969148 6.217893 3.605782 -14.852827 4.117599 -33.409809 -9.276292 4.034598 -1.618701 5.221553 15.196357 -1.660056 18.388405 -20.888247 0.051000 1.457700 4.009000 18.960946 17.215825 -8.446139 -0.777497 -10.746755 30.845393 1.449425 -14.300536 -18.218511 -0.042200 1.325400 -3.644700 0.820615 -2.228458 -5.260679 0.590340 -1.073899 -3.484841 5.561829 -11.920118 12.324266 -1.013100 -5.076700 10.916900 -104.120824 12.659347 -9.120438 18.810543 -27.694498 -3.575711 0.068813 4.634086 22.298919 -7.125000 0.000000 0.000000 91.643309 -2.797727 22.085547 -22.081786 32.027915 -3.963009 -0.360825 -3.009316 8.174073 7.125000 0.000000 0.000000 
1.370544 16.967733 6.229320 6.082998 -14.330809 4.837041 -29.997453 -10.258025 1.626725 -1.969753 5.957824 13.756828 -1.477959 16.483755 -19.198094 0.441198 0.777706 2.524993 21.706736 15.854848 -7.736956 -0.376089 -10.275156 26.391719 1.997698 -13.804206 -17.809626 -0.233484 1.232761 -3.103247 2.128976 -0.943479 -4.285024 -0.482911 -0.898987 -2.444363 7.410554 -9.731522 14.725259 0.142131 -4.688013 10.236334 -87.533601 11.190046 -3.406060 18.009804 -27.265439 -3.581924 0.247156 2.584431 20.342742 -6.953653 0.001124 -0.031360 82.225437 -4.145659 16.568246 -18.870696 28.663678 -4.192882 -0.601840 -1.705863 9.601404 6.927000 0.000050 -0.006028 1.370544 16.967733 6.229320 3.583718 -14.877216 4.103913 -33.379306 -9.330891 4.175762 -1.620391 5.194385 15.153437 -1.698792 18.552388 -20.861061 0.041500 1.315000 3.615800 19.029566 17.108965 -8.426732 -0.783878 -10.751060 30.880952 1.415014 -14.155482 -18.239584 -0.041300 1.311600 -3.606700 0.829592 -2.297196 -5.272506 0.609775 -1.103346 -3.489364 5.599083 -12.012220 12.357793 -0.985800 -5.113400 10.967900 -104.150002 12.676346 -8.841007 18.977376 -27.889928 -3.618627 0.053526 4.633874 22.028498 -7.125000 0.000000 0.000000 91.634187 -2.858919 21.547763 -21.566283 31.543232 -3.830831 -0.397870 -3.024623 8.695850 7.125000 0.000000 0.000000 
1.355198 16.966645 6.239659 5.973426 -14.480619 4.928412 -30.415430 -10.229436 2.396864 -1.831605 5.785925 13.295386 -1.690356 17.029962 -20.328296 0.384173 1.075026 3.413142 20.900922 15.751521 -8.215374 -0.747047 -9.843651 26.395894 2.207064 -14.235765 -18.578506 -0.123151 1.456928 -3.753623 1.786974 -1.541990 -4.607668 0.409656 -1.299642 -3.068231 7.285823 -10.346228 14.549908 0.035691 -5.023073 10.265802 -88.033700 11.372895 -4.387440 18.120669 -27.443838 -3.294274 0.180324 2.629324 20.075493 -6.944757 0.000998 -0.034611 82.309674 -4.182404 15.986179 -18.335429 28.285229 -3.330226 -0.274250 -1.822906 10.369235 6.912986 -0.000343 -0.007135 1.355198 16.966645 6.239659 3.593202 -14.895357 4.098287 -33.383642 -9.420787 4.259469 -1.616673 5.195992 15.178070 -1.674811 18.576214 -21.137399 0.052200 1.473900 4.053900 19.062937 17.013590 -8.403508 -0.783372 -10.741472 30.873730 1.396181 -14.063290 -18.226832 -0.041300 1.312000 -3.607600 0.836781 -2.367168 -5.279504 0.682417 -1.128570 -3.495384 5.670779 -12.146371 12.347482 -0.888500 -5.193300 10.977700 -104.210480 12.645936 -8.622885 19.139535 -28.081943 -3.658613 0.051515 4.621105 21.819321 -7.125000 0.000000 0.000000 91.582797 -2.920460 21.028422 -21.047314 31.043823 -3.694833 -0.442853 -3.013413 9.204707 7.125000 0.000000 0.000000 
1.338438 16.967189 6.247060 5.655143 -14.233332 4.490494 -30.965373 -9.945516 3.089586 -1.455193 5.655386 13.377142 -1.455045 17.776192 -21.366439 0.333058 1.256606 3.958814 20.754718 16.343593 -8.746481 -0.759221 -10.027148 26.507500 1.525378 -14.169584 -18.801351 -0.027479 1.618764 -4.222639 1.750634 -1.609998 -4.682704 0.131597 -1.095631 -3.492345 6.932511 -10.628667 14.750915 -0.031638 -5.295055 10.261700 -88.247799 11.265370 -5.096696 18.167543 -27.340137 -3.398672 0.414581 3.282673 19.650046 -6.935548 0.000567 -0.036075 81.627871 -3.626496 15.930737 -18.098362 28.098659 -2.850883 -0.508639 -2.197329 10.959581 6.901793 -0.001626 -0.007270 1.338438 16.967189 6.247060 3.466759 -14.914486 4.133351 -33.217491 -9.485408 4.319763 -1.610472 5.190559 15.194471 -1.700298 18.689012 -21.156187 0.046200 1.387000 3.814400 19.282294 17.062891 -8.343166 -0.772673 -10.742737 30.861366 1.397236 -14.108174 -18.282010 -0.042900 1.336900 -3.676400 0.845037 -2.390086 -5.288313 0.687686 -1.136757 -3.517621 5.731885 -12.282786 12.339406 -0.831300 -5.258800 10.998200 -104.197319 12.596954 -8.191197 19.372600 -28.347584 -3.725806 0.034360 4.634604 21.396405 -7.125000 0.000000 0.000000 91.600909 -2.975817 20.383174 -20.503016 30.534403 -3.565993 -0.496610 -3.024111 9.775834 7.125000 0.000000 0.000000 
1.322222 16.966972 6.255658 5.984547 -14.299273 4.349344 -30.885146 -9.664053 3.235535 -1.474720 5.460413 13.191867 -1.661813 18.711233 -21.818655 0.287876 1.346579 4.230120 20.100992 16.351148 -8.568148 -0.100139 -9.984177 26.557367 1.527441 -14.613562 -19.727987 0.045290 1.670196 -4.366713 1.362605 -1.190569 -5.683375 0.004973 -1.429373 -3.292190 6.921106 -10.893373 13.962514 -0.062810 -5.513442 10.251378 -88.124146 11.378747 -5.853184 18.334548 -27.770122 -3.643190 0.224459 2.996886 20.046474 -6.925234 0.000381 -0.038257 81.328490 -3.488231 15.697522 -17.567600 28.016258 -2.690508 -0.275334 -2.396768 11.277896 6.890383 -0.002918 -0.007518 1.322222 16.966972 6.255658 3.396454 -14.930556 4.149715 -33.123703 -9.564150 4.394064 -1.605065 5.188539 15.216220 -1.708013 18.772326 -21.269800 0.046000 1.384400 3.807300 19.426417 17.053475 -8.290898 -0.765973 -10.737937 30.848780 1.388618 -14.093095 -18.315990 -0.042900 1.337400 -3.677600 0.850923 -2.425299 -5.295609 0.700394 -1.149741 -3.525541 5.793978 -12.416668 12.336465 -0.768100 -5.324900 11.022400 -104.189459 12.550957 -7.805043 19.594640 -28.597935 -3.787743 0.016977 4.640163 21.025458 -7.125000 0.000000 0.000000 91.604890 -3.030326 19.740029 -19.963150 30.023288 -3.439174 -0.552736 -3.022494 10.371969 7.125000 0.000000 0.000000 
1.305897 16.966972 6.264038 5.594681 -14.210391 4.252500 -31.310656 -9.854833 4.354999 -1.635759 5.559061 13.184520 -1.756006 18.882847 -22.461951 0.252493 1.390751 4.352420 20.731052 16.555918 -8.214067 -0.328833 -10.343072 26.499887 1.653286 -14.886597 -19.774508 0.096029 1.644037 -4.281175 0.916641 -1.510295 -5.824442 0.348388 -1.181830 -3.061279 7.009576 -11.533562 13.408096 -0.161032 -5.690373 10.268660 -88.403815 11.681889 -6.287181 18.521721 -28.279527 -3.953809 0.117638 3.471035 20.198362 -6.916635 0.000496 -0.039919 81.225197 -3.786321 15.251891 -17.352787 27.599567 -2.897187 -0.443330 -2.404731 12.118890 6.881095 -0.003022 -0.007720 1.305897 16.966972 6.264038 3.325232 -14.942841 4.166852 -33.028418 -9.645626 4.459112 -1.598073 5.192517 15.252868 -1.711307 18.843013 -21.398865 0.046600 1.393600 3.832500 19.574190 17.048331 -8.230375 -0.757618 -10.729800 30.827304 1.381635 -14.086653 -18.352175 -0.042600 1.332600 -3.664500 0.855147 -2.453410 -5.301611 0.700886 -1.159863 -3.527903 5.858993 -12.550681 12.331172 -0.705100 -5.390000 11.046800 -104.160988 12.494086 -7.369478 19.844382 -28.874985 -3.859101 -0.008011 4.650668 20.606338 -7.125000 0.000000 0.000000 91.617791 -3.085164 19.068801 -19.423306 29.512166 -3.316673 -0.612570 -3.018354 10.996775 7.125000 0.000000 0.000000 
